<?xml version="1.0" standalone="no"?><!DOCTYPE svg PUBLIC "-//W3C//DTD SVG 1.1//EN" "http://www.w3.org/Graphics/SVG/1.1/DTD/svg11.dtd"><svg t="1554864685126" class="icon" style="" viewBox="0 0 1024 1024" version="1.1" xmlns="http://www.w3.org/2000/svg" p-id="3329" xmlns:xlink="http://www.w3.org/1999/xlink" width="256" height="256"><defs><style type="text/css"></style></defs><path d="M146.329205 573.200874l0 150.617369c0 8.838296 3.140527 16.534582 11.544941 19.191084l442.141956 139.754974c1.948375 0.595564 3.326768 0.893346 5.325285 0.893346 4.940522 0 9.496282-1.799996 13.244652-5.189186l246.189052-223.596498c4.208858-3.823072 6.121418-9.235338 6.121418-14.921851L870.896508 474.578716l61.546751 21.202904c2.322905 0.794086 4.854565 1.192152 7.201006 1.192152 5.64865 0 11.195993-2.27174 15.305591-6.541997 5.821589-6.045693 6.567579-14.648628 3.216251-23.183002l-87.268576-186.187493c0-0.099261 0-0.211824 0-0.322341 0-2.694365-0.583285-5.189186-2.111081-7.572466-1.727341-4.033873-4.085038-7.534604-8.020674-9.743922-0.607844-0.335644-1.004887-0.471744-1.62501-0.744967-7.30129-5.250584-15.033391-8.615215-16.920368-9.18008L482.270397 141.306306c-5.598508-1.713015-11.507078-1.11745-16.671705 1.589195L181.298648 291.811112c-22.221094 11.644201-31.344892 20.029172-35.031864 25.932626-1.886977 2.14792-3.215228 4.6366-4.033873 7.348362-1.489934 2.111081-2.818185 4.344958-3.823072 6.80294l-71.999824 177.727821c-3.686972 9.100262-3.38919 19.402909 0.781806 28.29851 4.183276 8.882298 14.486946 15.670911 23.859407 18.638499L146.329205 573.200874zM171.752224 581.220524l332.726987 105.753579c3.450589 1.067308 5.760191 1.638313 9.359158 1.638313 15.653515 0 28.986171-10.526751 33.30657-25.596981l34.783201-122.30658 10.141988 312.435848L171.752224 719.919447 171.752224 581.220524zM845.472466 637.591393 614.352621 847.38349l-10.227945-404.540569 241.34779-152.23624L845.472466 637.591393zM870.896508 447.665763 870.896508 338.598718l60.255339 129.953747L870.896508 447.665763zM476.236983 166.034501l347.871919 108.409059L589.302085 422.441265c-15.479553-3.711532-68.722174-17.552771-136.762827-35.416628L192.743304 314.52851c0.124843-0.062422 0.248663-0.1361 0.372483-0.192382L476.236983 166.034501zM89.982896 519.175423l71.999824-180.620707c0.347924-0.874927 0.844228 7.441483 1.402953-5.263887l8.367575 0 0 4.52506c127.117143 36.210713 226.377844 60.752666 289.538349 77.331249l111.74913 31.543414c2.557242 0.713244 4.047176 2.38942 5.338588 4.697999 1.302669 2.321882 1.302669 5.015224 0.571005 7.572466l-56.70549 197.026352c-1.476631 5.188162-7.225565 8.416693-12.562107 6.728238L96.213807 532.316721c-2.656503-0.844228-4.803399-2.706645-5.995551-5.227048C89.027128 524.55699 88.940147 521.752108 89.982896 519.175423z" p-id="3330" fill="#cdcdcd"></path></svg>